<?xml version="1.0" encoding="UTF-8" standalone="no"?>
<!-- Created with Inkscape (http://www.inkscape.org/) -->

<svg
   width="144.90372mm"
   height="29.254318mm"
   viewBox="0 0 144.90372 29.254318"
   version="1.1"
   id="svg1"
   xml:space="preserve"
   xmlns:xlink="http://www.w3.org/1999/xlink"
   xmlns="http://www.w3.org/2000/svg"
   xmlns:svg="http://www.w3.org/2000/svg"><defs
     id="defs1"><linearGradient
       id="linearGradient246"><stop
         style="stop-color:#0a00ff;stop-opacity:1;"
         offset="0"
         id="stop245" /><stop
         style="stop-color:#cd00ff;stop-opacity:1;"
         offset="1"
         id="stop246" /></linearGradient><linearGradient
       id="linearGradient4"><stop
         style="stop-color:#065cff;stop-opacity:1;"
         offset="0"
         id="stop4" /><stop
         style="stop-color:#d500fc;stop-opacity:1;"
         offset="1"
         id="stop5" /></linearGradient><linearGradient
       xlink:href="#linearGradient4"
       id="linearGradient5"
       x1="133.90886"
       y1="74.217377"
       x2="272.06787"
       y2="74.217377"
       gradientUnits="userSpaceOnUse"
       gradientTransform="matrix(1.0961756,0,0,1.0961756,-91.60764,78.39985)" /><linearGradient
       xlink:href="#linearGradient246"
       id="linearGradient233"
       x1="116.21357"
       y1="144.81389"
       x2="353.29572"
       y2="144.81389"
       gradientUnits="userSpaceOnUse"
       gradientTransform="matrix(1.0792537,0,0,1.0792537,-8.7209028,-174.45608)" /></defs><g
     id="layer1"
     transform="translate(-36.337791,-12.866884)"><g
       id="g218"
       transform="translate(-20.735212,-89.852586)"><g
         id="g232"
         transform="matrix(0.53421593,0,0,0.71396325,0.18016019,-139.22099)" /><g
         id="g233"
         transform="translate(-4.7069066,12.409117)"><g
           id="g234"><g
             id="g235"
             transform="translate(0,20.539229)"><g
               id="g1"
               transform="matrix(0.72260399,0,0,0.72260399,40.416312,22.390597)"><g
                 id="g263"
                 transform="matrix(0.53057931,0,0,0.53057931,21.648225,96.453514)"><path
                   d="m 95.209219,114.27849 c -22.131045,0 -39.947949,17.81638 -39.947949,39.94743 v 11.05824 c 0,20.95427 14.421595,30.40405 16.705073,34.69967 1.933342,3.63695 -0.333198,10.20537 -4.724225,17.40024 -1.35947,2.22754 -0.440142,4.0294 2.113966,3.51629 12.80925,-2.57332 21.245793,-15.4987 31.700246,-15.52202 l 65.5413,-0.14618 c 22.13098,-0.0494 39.94743,-17.81691 39.94743,-39.94795 v -11.05824 c 0,-22.13105 -17.81639,-39.94743 -39.94743,-39.94743 z"
                   style="fill:url(#linearGradient5);stroke:#405a9c;stroke-width:0.162737;stroke-opacity:0.851651"
                   id="path220"
                   transform="matrix(0.53421592,0,0,0.71396326,-14.557469,-139.74132)" /><rect
                   style="fill:#f4eefb;fill-opacity:1;stroke:#405a9c;stroke-width:0.12088;stroke-opacity:0.851651"
                   id="rect1"
                   width="121.87833"
                   height="62.292976"
                   x="42.656261"
                   y="128.1785"
                   ry="31.146488"
                   rx="27.034012"
                   transform="matrix(0.53421592,0,0,0.71396326,0.18016014,-139.22099)" /><g
                   id="g3"
                   transform="matrix(0.56194312,0,0,0.75101979,-34.808346,-117.23368)"><g
                     id="g220"><ellipse
                       style="fill:#1a1a1a;fill-opacity:0.750091;stroke:#405a9c;stroke-width:0.1;stroke-opacity:0.851651"
                       id="path2"
                       cx="137.76309"
                       cy="116.64346"
                       rx="5.7047267"
                       ry="7.6467619" /><circle
                       style="fill:#ffffff;fill-opacity:1;stroke:#405a9c;stroke-width:0.1;stroke-opacity:0.851651"
                       id="path3"
                       cx="137.8521"
                       cy="113.57204"
                       r="2.1847889" /></g></g><path
                   d="m -172.98527,154.48331 c -1.0073,-0.56106 -1.97016,-1.18879 -2.88857,-1.8832 -1.38853,-1.04987 -2.65853,-2.2352 -3.81,-3.556 -1.15147,-1.28693 -2.16747,-2.67547 -3.048,-4.1656 -0.84667,-1.524 -1.54093,-3.11573 -2.0828,-4.7752 -0.508,-1.65947 -0.88053,-3.3528 -1.1176,-5.08 -0.23707,-1.7272 -0.3556,-3.4544 -0.3556,-5.1816 0,-1.7272 0.11853,-3.4544 0.3556,-5.1816 0.23707,-1.7272 0.6096,-3.42053 1.1176,-5.08 0.54187,-1.65947 1.23613,-3.23427 2.0828,-4.7244 0.88053,-1.524 1.89653,-2.92947 3.048,-4.2164 1.15147,-1.3208 2.42147,-2.50613 3.81,-3.556 0.90357,-0.68319 1.85016,-1.30184 2.83978,-1.85595 0.88312,-0.49449 2.0236,-0.11598 2.50837,0.77276 l 0.003,0.005 c 0.52361,0.95994 0.14952,2.1273 -0.78366,2.69661 -0.71949,0.43895 -1.41224,0.91532 -2.07827,1.42911 -1.18533,0.9144 -2.25213,1.94733 -3.2004,3.0988 -0.94827,1.1176 -1.79493,2.3368 -2.54,3.6576 -0.7112,1.3208 -1.28693,2.6924 -1.7272,4.1148 -0.44027,1.4224 -0.762,2.87867 -0.9652,4.3688 -0.16933,1.49013 -0.254,2.98027 -0.254,4.4704 0,1.49013 0.0847,2.98027 0.254,4.4704 0.2032,1.49013 0.52493,2.9464 0.9652,4.3688 0.44027,1.4224 1.016,2.794 1.7272,4.1148 0.74507,1.3208 1.59173,2.55693 2.54,3.7084 0.94827,1.1176 2.01507,2.1336 3.2004,3.048 0.65165,0.5027 1.32889,0.96958 2.03171,1.40063 0.95751,0.58725 1.34213,1.7866 0.80409,2.773 l -0.004,0.007 c -0.46999,0.86165 -1.57554,1.22846 -2.43282,0.75096 z"
                   id="text8"
                   style="font-size:50.8px;font-family:'Adwaita Mono';-inkscape-font-specification:'Adwaita Mono, Normal';fill:#333333;stroke:#405a9c;stroke-width:0.1;stroke-opacity:0.851651"
                   transform="matrix(0,-0.32996235,0.24689106,0,23.625648,-72.49321)"
                   aria-label="(" /><g
                   id="g231"
                   transform="matrix(0.56194312,0,0,0.75101979,-6.5394191,-117.23368)"><g
                     id="g230"><ellipse
                       style="fill:#1a1a1a;fill-opacity:0.750091;stroke:#405a9c;stroke-width:0.1;stroke-opacity:0.851651"
                       id="ellipse230"
                       cx="137.76309"
                       cy="116.64346"
                       rx="5.7047267"
                       ry="7.6467619" /><circle
                       style="fill:#ffffff;fill-opacity:1;stroke:#405a9c;stroke-width:0.1;stroke-opacity:0.851651"
                       id="circle230"
                       cx="137.8521"
                       cy="113.57204"
                       r="2.1847889" /></g></g><text
                   xml:space="preserve"
                   style="font-style:normal;font-variant:normal;font-weight:normal;font-stretch:normal;font-size:54.8261px;font-family:'Adwaita Mono';-inkscape-font-specification:'Adwaita Mono, Normal';font-variant-ligatures:normal;font-variant-caps:normal;font-variant-numeric:normal;font-variant-east-asian:normal;writing-mode:lr-tb;direction:ltr;fill:url(#linearGradient233);stroke:#405a9c;stroke-width:0.107925;stroke-opacity:0.851651"
                   x="113.1933"
                   y="-3.6910772"
                   id="text232"><tspan
                     id="tspan232"
                     x="113.1933"
                     y="-3.6910772"
                     style="font-style:normal;font-variant:normal;font-weight:normal;font-stretch:normal;font-size:54.8261px;font-family:'Adwaita Sans';-inkscape-font-specification:'Adwaita Sans, @opsz=32,wght=700';font-variant-ligatures:normal;font-variant-caps:normal;font-variant-numeric:normal;font-variant-east-asian:normal;font-variation-settings:'opsz' 32, 'wght' 700;fill:url(#linearGradient233);fill-opacity:1;stroke-width:0.107925">MSG<tspan
   style="font-style:normal;font-variant:normal;font-weight:normal;font-stretch:normal;font-size:54.8261px;font-family:'Adwaita Sans';-inkscape-font-specification:'Adwaita Sans, @opsz=32';font-variant-ligatures:normal;font-variant-caps:normal;font-variant-numeric:normal;font-variant-east-asian:normal;font-variation-settings:'opsz' 32;fill:url(#linearGradient233);stroke-width:0.107925"
   id="tspan233">Buddy</tspan></tspan></text></g></g></g></g></g></g></g></svg>
